<?xml version="1.0" encoding="utf-8"?>
<svg id="Layer_1" style="enable-background:new 0 0 24 24;" version="1.1" viewBox="0 0 24 24" xmlns="http://www.w3.org/2000/svg" xmlns:bx="https://boxy-svg.com">
  <path d="M19.607,18.746c0,0.881-0.716,1.624-1.597,1.624H5.231c-0.881,0-1.597-0.743-1.597-1.624V5.967  c0-0.881,0.716-1.571,1.597-1.571h7.454V3.332H5.231c-1.468,0-2.662,1.168-2.662,2.636v12.778c0,1.468,1.194,2.688,2.662,2.688  h12.778c1.468,0,2.662-1.221,2.662-2.688v-7.428h-1.065V18.746z"/>
  <path d="M 7.089 -0.26 H 8.162 V 6.424 H 14.846 V 7.497 H 8.162 V 14.181 H 7.089 V 7.497 H 0.405 V 6.424 H 7.089 Z" style="" transform="matrix(-0.707107, 0.707107, -0.707107, -0.707107, 22.21703, 12.116987)" bx:shape="cross 0.405 -0.26 14.441 14.441 1.073 1.073 0.5 1@92c01e87"/>
</svg>