<?xml version="1.0" encoding="utf-8"?>
<svg id="Layer_1" style="enable-background:new 0 0 24 24;" version="1.1" viewBox="0 0 24 24" xmlns="http://www.w3.org/2000/svg" xmlns:bx="https://boxy-svg.com">
  <path d="M19.607,18.746c0,0.881-0.716,1.624-1.597,1.624H5.231c-0.881,0-1.597-0.743-1.597-1.624V5.967  c0-0.881,0.716-1.571,1.597-1.571h7.454V3.332H5.231c-1.468,0-2.662,1.168-2.662,2.636v12.778c0,1.468,1.194,2.688,2.662,2.688  h12.778c1.468,0,2.662-1.221,2.662-2.688v-7.428h-1.065V18.746z"/>
  <path d="M 4.36 -0.166 H 5.376 V 3.951 H 9.477 V 4.936 H 5.376 V 9.052 H 4.36 V 4.936 H 0.259 V 3.951 H 4.36 Z" style="" transform="matrix(-0.707107, 0.707107, -0.707107, -0.707107, 23.739113, 6.629738)" bx:shape="cross 0.259 -0.166 9.218 9.218 0.985 1.016 0.5 1@fe0670d3"/>
</svg>