<?xml version="1.0" ?><svg style="enable-background:new 0 0 24 24;" version="1.1" viewBox="0 0 24 24" xml:space="preserve" xmlns="http://www.w3.org/2000/svg" xmlns:xlink="http://www.w3.org/1999/xlink"><style type="text/css">
	.st0{display:none;}
</style><g class="st0" id="grid"/><g id="icon"><path d="M12,0C5.383,0,0,5.383,0,12s5.383,12,12,12s12-5.383,12-12S18.617,0,12,0z M12,23C5.935,23,1,18.065,1,12S5.935,1,12,1   s11,4.935,11,11S18.065,23,12,23z"/><path d="M14.62,6.994l-7.334,7.334c-0.062,0.061-0.105,0.137-0.129,0.221l-0.64,2.318c-0.048,0.173,0.002,0.359,0.129,0.486   C6.741,17.449,6.869,17.5,7,17.5c0.044,0,0.089-0.006,0.133-0.018l2.317-0.639c0.084-0.023,0.159-0.067,0.221-0.128l7.335-7.334   C17.324,9.062,17.5,8.638,17.5,8.187s-0.176-0.875-0.494-1.193C16.346,6.336,15.276,6.337,14.62,6.994z M16.299,8.673l-7.241,7.241   l-1.342,0.37l0.37-1.341l7.241-7.241c0.267-0.267,0.703-0.268,0.972,0c0.13,0.13,0.201,0.302,0.201,0.486   S16.429,8.543,16.299,8.673z"/></g></svg>